<?xml version="1.0" standalone="no"?>
<!DOCTYPE svg PUBLIC "-//W3C//DTD SVG 20010904//EN"
 "http://www.w3.org/TR/2001/REC-SVG-20010904/DTD/svg10.dtd">
<svg version="1.0" xmlns="http://www.w3.org/2000/svg"
 width="261.000000pt" height="261.000000pt" viewBox="0 0 261.000000 261.000000"
 preserveAspectRatio="xMidYMid meet">
<metadata>
Created by potrace 1.14, written by Peter Selinger 2001-2017
</metadata>
<g transform="translate(0.000000,261.000000) scale(0.100000,-0.100000)"
fill="#000000" stroke="none">
<path d="M1940 2030 c0 -3 -7 -40 -15 -82 l-15 -77 42 -66 c23 -36 48 -65 55
-65 8 0 35 5 60 12 39 9 54 8 99 -7 45 -15 59 -16 97 -6 24 7 52 11 62 9 10
-2 20 2 21 7 2 6 -37 18 -87 28 -88 17 -93 17 -112 0 -20 -18 -20 -17 -14 29
7 53 11 50 -90 69 -78 14 -82 19 -83 89 0 19 -5 42 -10 50 -5 8 -10 13 -10 10z"/>
<path d="M1900 1817 c0 -3 -9 -29 -20 -56 l-19 -50 48 -40 48 -40 -20 87 c-10
48 -23 91 -28 97 -5 5 -9 6 -9 2z"/>
<path d="M1757 1622 l-87 -88 -138 -37 -139 -37 -184 26 c-101 15 -189 27
-195 27 -6 0 -35 -14 -65 -31 -79 -45 -203 -175 -247 -258 -20 -38 -64 -119
-97 -180 l-59 -111 -139 -53 c-76 -30 -140 -57 -143 -61 -2 -4 48 -35 113 -69
l116 -62 96 17 c53 9 105 20 116 24 24 10 68 121 141 359 30 94 51 148 56 140
12 -19 10 -97 -4 -134 -10 -29 -9 -37 14 -72 43 -65 94 -173 116 -248 20 -66
24 -72 53 -78 55 -11 62 -7 32 18 l-27 24 -4 158 -3 159 113 61 c83 44 114 66
116 82 3 20 7 21 110 16 211 -9 227 -12 245 -43 10 -18 13 -32 7 -41 -15 -23
-10 -184 8 -304 l17 -110 35 -14 c35 -14 35 -14 17 6 -14 16 -17 29 -12 54 17
79 68 194 121 275 l57 88 10 126 10 126 49 18 c26 9 48 22 48 28 0 22 -52 167
-59 167 -4 0 -14 -44 -22 -97 l-15 -98 -11 40 c-6 22 -24 93 -39 158 -15 64
-30 117 -33 117 -4 0 -46 -40 -94 -88z"/>
</g>
</svg>
